<?xml version="1.0" encoding="UTF-8" standalone="no"?>
<!DOCTYPE svg PUBLIC "-//W3C//DTD SVG 1.1//EN"
 "http://www.w3.org/Graphics/SVG/1.1/DTD/svg11.dtd">
<!-- Generated by graphviz version 2.40.1 (20161225.0304)
 -->
<!-- Title: finite_state_machine Pages: 1 -->
<svg width="133pt" height="432pt"
 viewBox="0.00 0.00 133.40 432.00" xmlns="http://www.w3.org/2000/svg" xmlns:xlink="http://www.w3.org/1999/xlink">
<g id="graph0" class="graph" transform="scale(.4789 .4789) rotate(0) translate(4 898)">
<title>finite_state_machine</title>
<polygon fill="#ffffff" stroke="transparent" points="-4,4 -4,-898 274.5365,-898 274.5365,4 -4,4"/>
<g id="clust1" class="cluster">
<title>cluster_loopend</title>
</g>
<g id="clust2" class="cluster">
<title>cluster_loop</title>
<polygon fill="#d3d3d3" stroke="#d3d3d3" points="63.473,-68 63.473,-615 262.5365,-615 262.5365,-68 63.473,-68"/>
<text text-anchor="middle" x="163.0047" y="-599.8" font-family="Times,serif" font-size="14.00" fill="#000000">loop() Function</text>
</g>
<g id="clust3" class="cluster">
<title>cluster_loopbegin</title>
</g>
<g id="clust4" class="cluster">
<title>cluster_setup</title>
<polygon fill="#d3d3d3" stroke="#d3d3d3" points="99.1737,-683 99.1737,-886 226.8358,-886 226.8358,-683 99.1737,-683"/>
<text text-anchor="middle" x="163.0047" y="-870.8" font-family="Times,serif" font-size="14.00" fill="#000000">setup() Function</text>
</g>
<!-- loopEnd -->
<g id="node1" class="node">
<title>loopEnd</title>
<path fill="#ffffff" stroke="#ffffff" d="M192.7639,-52C192.7639,-52 133.2455,-52 133.2455,-52 127.2455,-52 121.2455,-46 121.2455,-40 121.2455,-40 121.2455,-28 121.2455,-28 121.2455,-22 127.2455,-16 133.2455,-16 133.2455,-16 192.7639,-16 192.7639,-16 198.7639,-16 204.7639,-22 204.7639,-28 204.7639,-28 204.7639,-40 204.7639,-40 204.7639,-46 198.7639,-52 192.7639,-52"/>
<text text-anchor="middle" x="163.0047" y="-29.8" font-family="Times,serif" font-style="italic" font-size="14.00" fill="#c0c0c0">Repeat loop</text>
</g>
<!-- loopBegin -->
<g id="node14" class="node">
<title>loopBegin</title>
<path fill="#ffffff" stroke="#ffffff" d="M186.6229,-667C186.6229,-667 139.3865,-667 139.3865,-667 133.3865,-667 127.3865,-661 127.3865,-655 127.3865,-655 127.3865,-643 127.3865,-643 127.3865,-637 133.3865,-631 139.3865,-631 139.3865,-631 186.6229,-631 186.6229,-631 192.6229,-631 198.6229,-637 198.6229,-643 198.6229,-643 198.6229,-655 198.6229,-655 198.6229,-661 192.6229,-667 186.6229,-667"/>
<text text-anchor="middle" x="163.0047" y="-644.8" font-family="Times,serif" font-style="italic" font-size="14.00" fill="#c0c0c0">Start loop</text>
</g>
<!-- loopEnd&#45;&gt;loopBegin -->
<g id="edge1" class="edge">
<title>loopEnd&#45;&gt;loopBegin</title>
<path fill="none" stroke="#000000" d="M121.1038,-32.8006C89.8718,-34.4144 49.0392,-42.3574 27.473,-70.5 -9.1577,-118.3008 -9.1577,-564.6992 27.473,-612.5 48.114,-639.4352 86.4037,-647.8669 117.0334,-649.9556"/>
<polygon fill="#000000" stroke="#000000" points="116.9342,-653.4548 127.0906,-650.4384 117.2699,-646.4629 116.9342,-653.4548"/>
</g>
<!-- readSensor1 -->
<g id="node2" class="node">
<title>readSensor1</title>
<path fill="#ffffff" stroke="#ffffff" d="M242.5682,-585C242.5682,-585 83.4412,-585 83.4412,-585 77.4412,-585 71.4412,-579 71.4412,-573 71.4412,-573 71.4412,-561 71.4412,-561 71.4412,-555 77.4412,-549 83.4412,-549 83.4412,-549 242.5682,-549 242.5682,-549 248.5682,-549 254.5682,-555 254.5682,-561 254.5682,-561 254.5682,-573 254.5682,-573 254.5682,-579 248.5682,-585 242.5682,-585"/>
<text text-anchor="middle" x="163.0047" y="-562.8" font-family="Times,serif" font-style="italic" font-size="14.00" fill="#c0c0c0">Read sensor #1 (temperature)</text>
</g>
<!-- input1Idle -->
<g id="node3" class="node">
<title>input1Idle</title>
<ellipse fill="#ffffff" stroke="#ffffff" cx="163.0047" cy="-524" rx="46.4132" ry="18"/>
<text text-anchor="middle" x="163.0047" y="-519.8" font-family="Times" font-size="14.00" fill="#000000">input1Idle</text>
</g>
<!-- input1Changed -->
<g id="node4" class="node">
<title>input1Changed</title>
<ellipse fill="#ffffff" stroke="#ffffff" cx="163.0047" cy="-481" rx="64.2873" ry="18"/>
<text text-anchor="middle" x="163.0047" y="-476.8" font-family="Times" font-size="14.00" fill="#000000">input1Changed</text>
</g>
<!-- input1Sending -->
<g id="node5" class="node">
<title>input1Sending</title>
<ellipse fill="#ffffff" stroke="#ffffff" cx="163.0047" cy="-438" rx="61.8909" ry="18"/>
<text text-anchor="middle" x="163.0047" y="-433.8" font-family="Times" font-size="14.00" fill="#000000">input1Sending</text>
</g>
<!-- readSensor2 -->
<g id="node6" class="node">
<title>readSensor2</title>
<path fill="#ffffff" stroke="#ffffff" d="M194.2649,-413C194.2649,-413 131.7446,-413 131.7446,-413 125.7446,-413 119.7446,-407 119.7446,-401 119.7446,-401 119.7446,-389 119.7446,-389 119.7446,-383 125.7446,-377 131.7446,-377 131.7446,-377 194.2649,-377 194.2649,-377 200.2649,-377 206.2649,-383 206.2649,-389 206.2649,-389 206.2649,-401 206.2649,-401 206.2649,-407 200.2649,-413 194.2649,-413"/>
<text text-anchor="middle" x="163.0047" y="-390.8" font-family="Times,serif" font-style="italic" font-size="14.00" fill="#c0c0c0">readSensor2</text>
</g>
<!-- readSensor3 -->
<g id="node7" class="node">
<title>readSensor3</title>
<path fill="#ffffff" stroke="#ffffff" d="M194.2649,-370C194.2649,-370 131.7446,-370 131.7446,-370 125.7446,-370 119.7446,-364 119.7446,-358 119.7446,-358 119.7446,-346 119.7446,-346 119.7446,-340 125.7446,-334 131.7446,-334 131.7446,-334 194.2649,-334 194.2649,-334 200.2649,-334 206.2649,-340 206.2649,-346 206.2649,-346 206.2649,-358 206.2649,-358 206.2649,-364 200.2649,-370 194.2649,-370"/>
<text text-anchor="middle" x="163.0047" y="-347.8" font-family="Times,serif" font-style="italic" font-size="14.00" fill="#c0c0c0">readSensor3</text>
</g>
<!-- sendTransceiverMessage -->
<g id="node8" class="node">
<title>sendTransceiverMessage</title>
<path fill="#ffffff" stroke="#ffffff" d="M231.1331,-327C231.1331,-327 94.8764,-327 94.8764,-327 88.8764,-327 82.8764,-321 82.8764,-315 82.8764,-315 82.8764,-303 82.8764,-303 82.8764,-297 88.8764,-291 94.8764,-291 94.8764,-291 231.1331,-291 231.1331,-291 237.1331,-291 243.1331,-297 243.1331,-303 243.1331,-303 243.1331,-315 243.1331,-315 243.1331,-321 237.1331,-327 231.1331,-327"/>
<text text-anchor="middle" x="163.0047" y="-304.8" font-family="Times,serif" font-style="italic" font-size="14.00" fill="#c0c0c0">Send transceiver message</text>
</g>
<!-- transceiverIdle -->
<g id="node9" class="node">
<title>transceiverIdle</title>
<ellipse fill="#ffffff" stroke="#ffffff" cx="163.0047" cy="-266" rx="62.7906" ry="18"/>
<text text-anchor="middle" x="163.0047" y="-261.8" font-family="Times" font-size="14.00" fill="#000000">transceiverIdle</text>
</g>
<!-- transceiverSending -->
<g id="node10" class="node">
<title>transceiverSending</title>
<ellipse fill="#ffffff" stroke="#ffffff" cx="163.0047" cy="-223" rx="77.7676" ry="18"/>
<text text-anchor="middle" x="163.0047" y="-218.8" font-family="Times" font-size="14.00" fill="#000000">transceiverSending</text>
</g>
<!-- transceiverSent -->
<g id="node11" class="node">
<title>transceiverSent</title>
<ellipse fill="#ffffff" stroke="#ffffff" cx="163.0047" cy="-180" rx="64.7372" ry="18"/>
<text text-anchor="middle" x="163.0047" y="-175.8" font-family="Times" font-size="14.00" fill="#000000">transceiverSent</text>
</g>
<!-- waitForTransceiverDownlink -->
<g id="node12" class="node">
<title>waitForTransceiverDownlink</title>
<path fill="#ffffff" stroke="#ffffff" d="M242.3097,-155C242.3097,-155 83.6998,-155 83.6998,-155 77.6998,-155 71.6998,-149 71.6998,-143 71.6998,-143 71.6998,-131 71.6998,-131 71.6998,-125 77.6998,-119 83.6998,-119 83.6998,-119 242.3097,-119 242.3097,-119 248.3097,-119 254.3097,-125 254.3097,-131 254.3097,-131 254.3097,-143 254.3097,-143 254.3097,-149 248.3097,-155 242.3097,-155"/>
<text text-anchor="middle" x="163.0047" y="-132.8" font-family="Times,serif" font-style="italic" font-size="14.00" fill="#c0c0c0">Wait for transceiver downlink</text>
</g>
<!-- pause10seconds -->
<g id="node13" class="node">
<title>pause10seconds</title>
<path fill="#ffffff" stroke="#ffffff" d="M208.5437,-112C208.5437,-112 117.4657,-112 117.4657,-112 111.4657,-112 105.4657,-106 105.4657,-100 105.4657,-100 105.4657,-88 105.4657,-88 105.4657,-82 111.4657,-76 117.4657,-76 117.4657,-76 208.5437,-76 208.5437,-76 214.5437,-76 220.5437,-82 220.5437,-88 220.5437,-88 220.5437,-100 220.5437,-100 220.5437,-106 214.5437,-112 208.5437,-112"/>
<text text-anchor="middle" x="163.0047" y="-89.8" font-family="Times,serif" font-style="italic" font-size="14.00" fill="#c0c0c0">Pause 10 seconds</text>
</g>
<!-- setupSensor1 -->
<g id="node15" class="node">
<title>setupSensor1</title>
<path fill="#ffffff" stroke="#ffffff" d="M196.1675,-856C196.1675,-856 129.842,-856 129.842,-856 123.842,-856 117.842,-850 117.842,-844 117.842,-844 117.842,-832 117.842,-832 117.842,-826 123.842,-820 129.842,-820 129.842,-820 196.1675,-820 196.1675,-820 202.1675,-820 208.1675,-826 208.1675,-832 208.1675,-832 208.1675,-844 208.1675,-844 208.1675,-850 202.1675,-856 196.1675,-856"/>
<text text-anchor="middle" x="163.0047" y="-833.8" font-family="Times,serif" font-style="italic" font-size="14.00" fill="#c0c0c0">setupSensor1</text>
</g>
<!-- setupSensor2 -->
<g id="node16" class="node">
<title>setupSensor2</title>
<path fill="#ffffff" stroke="#ffffff" d="M196.1675,-813C196.1675,-813 129.842,-813 129.842,-813 123.842,-813 117.842,-807 117.842,-801 117.842,-801 117.842,-789 117.842,-789 117.842,-783 123.842,-777 129.842,-777 129.842,-777 196.1675,-777 196.1675,-777 202.1675,-777 208.1675,-783 208.1675,-789 208.1675,-789 208.1675,-801 208.1675,-801 208.1675,-807 202.1675,-813 196.1675,-813"/>
<text text-anchor="middle" x="163.0047" y="-790.8" font-family="Times,serif" font-style="italic" font-size="14.00" fill="#c0c0c0">setupSensor2</text>
</g>
<!-- setupSensor3 -->
<g id="node17" class="node">
<title>setupSensor3</title>
<path fill="#ffffff" stroke="#ffffff" d="M196.1675,-770C196.1675,-770 129.842,-770 129.842,-770 123.842,-770 117.842,-764 117.842,-758 117.842,-758 117.842,-746 117.842,-746 117.842,-740 123.842,-734 129.842,-734 129.842,-734 196.1675,-734 196.1675,-734 202.1675,-734 208.1675,-740 208.1675,-746 208.1675,-746 208.1675,-758 208.1675,-758 208.1675,-764 202.1675,-770 196.1675,-770"/>
<text text-anchor="middle" x="163.0047" y="-747.8" font-family="Times,serif" font-style="italic" font-size="14.00" fill="#c0c0c0">setupSensor3</text>
</g>
<!-- setupTransceiver -->
<g id="node18" class="node">
<title>setupTransceiver</title>
<path fill="#ffffff" stroke="#ffffff" d="M206.6673,-727C206.6673,-727 119.3421,-727 119.3421,-727 113.3421,-727 107.3421,-721 107.3421,-715 107.3421,-715 107.3421,-703 107.3421,-703 107.3421,-697 113.3421,-691 119.3421,-691 119.3421,-691 206.6673,-691 206.6673,-691 212.6673,-691 218.6673,-697 218.6673,-703 218.6673,-703 218.6673,-715 218.6673,-715 218.6673,-721 212.6673,-727 206.6673,-727"/>
<text text-anchor="middle" x="163.0047" y="-704.8" font-family="Times,serif" font-style="italic" font-size="14.00" fill="#c0c0c0">setupTransceiver</text>
</g>
</g>
</svg>
