<?xml version="1.0" encoding="UTF-8" standalone="no"?>
<!DOCTYPE svg PUBLIC "-//W3C//DTD SVG 1.1//EN"
 "http://www.w3.org/Graphics/SVG/1.1/DTD/svg11.dtd">
<!-- Generated by graphviz version 2.40.1 (20161225.0304)
 -->
<!-- Title: finite_state_machine Pages: 1 -->
<svg width="274pt" height="343pt"
 viewBox="0.00 0.00 274.31 343.00" xmlns="http://www.w3.org/2000/svg" xmlns:xlink="http://www.w3.org/1999/xlink">
<g id="graph0" class="graph" transform="scale(1 1) rotate(0) translate(4 339)">
<title>finite_state_machine</title>
<polygon fill="#ffffff" stroke="transparent" points="-4,4 -4,-339 270.3054,-339 270.3054,4 -4,4"/>
<g id="clust1" class="cluster">
<title>cluster_loopend</title>
</g>
<g id="clust2" class="cluster">
<title>cluster_loop</title>
<polygon fill="#d3d3d3" stroke="#d3d3d3" points="70.1965,-68 70.1965,-185 246.8244,-185 246.8244,-68 70.1965,-68"/>
<text text-anchor="middle" x="158.5104" y="-169.8" font-family="Times,serif" font-size="14.00" fill="#000000">loop() Function</text>
</g>
<g id="clust3" class="cluster">
<title>cluster_loopbegin</title>
</g>
<g id="clust4" class="cluster">
<title>cluster_setup</title>
<polygon fill="#d3d3d3" stroke="#d3d3d3" points="58.7155,-253 58.7155,-327 258.3054,-327 258.3054,-253 58.7155,-253"/>
<text text-anchor="middle" x="158.5104" y="-311.8" font-family="Times,serif" font-size="14.00" fill="#000000">setup() Function</text>
</g>
<!-- loopEnd -->
<g id="node1" class="node">
<title>loopEnd</title>
<path fill="#ffffff" stroke="#ffffff" d="M188.2696,-52C188.2696,-52 128.7512,-52 128.7512,-52 122.7512,-52 116.7512,-46 116.7512,-40 116.7512,-40 116.7512,-28 116.7512,-28 116.7512,-22 122.7512,-16 128.7512,-16 128.7512,-16 188.2696,-16 188.2696,-16 194.2696,-16 200.2696,-22 200.2696,-28 200.2696,-28 200.2696,-40 200.2696,-40 200.2696,-46 194.2696,-52 188.2696,-52"/>
<text text-anchor="middle" x="158.5104" y="-29.8" font-family="Times,serif" font-style="italic" font-size="14.00" fill="#000000">Repeat loop</text>
</g>
<!-- loopBegin -->
<g id="node4" class="node">
<title>loopBegin</title>
<path fill="#ffffff" stroke="#ffffff" d="M182.1286,-237C182.1286,-237 134.8922,-237 134.8922,-237 128.8922,-237 122.8922,-231 122.8922,-225 122.8922,-225 122.8922,-213 122.8922,-213 122.8922,-207 128.8922,-201 134.8922,-201 134.8922,-201 182.1286,-201 182.1286,-201 188.1286,-201 194.1286,-207 194.1286,-213 194.1286,-213 194.1286,-225 194.1286,-225 194.1286,-231 188.1286,-237 182.1286,-237"/>
<text text-anchor="middle" x="158.5104" y="-214.8" font-family="Times,serif" font-style="italic" font-size="14.00" fill="#000000">Start loop</text>
</g>
<!-- loopEnd&#45;&gt;loopBegin -->
<g id="edge1" class="edge">
<title>loopEnd&#45;&gt;loopBegin</title>
<path fill="none" stroke="#000000" d="M116.8526,-32.7588C85.5204,-34.3206 44.4019,-42.2149 22.7155,-70.5 -7.5718,-110.0032 -7.5718,-142.9968 22.7155,-182.5 43.4671,-209.566 82.0119,-217.961 112.7489,-220.0028"/>
<polygon fill="#000000" stroke="#000000" points="112.6854,-223.5035 122.8365,-220.4695 113.009,-216.511 112.6854,-223.5035"/>
</g>
<!-- readSensors -->
<g id="node2" class="node">
<title>readSensors</title>
<path fill="#ffffff" stroke="#ffffff" d="M191.7833,-155C191.7833,-155 125.2376,-155 125.2376,-155 119.2376,-155 113.2376,-149 113.2376,-143 113.2376,-143 113.2376,-131 113.2376,-131 113.2376,-125 119.2376,-119 125.2376,-119 125.2376,-119 191.7833,-119 191.7833,-119 197.7833,-119 203.7833,-125 203.7833,-131 203.7833,-131 203.7833,-143 203.7833,-143 203.7833,-149 197.7833,-155 191.7833,-155"/>
<text text-anchor="middle" x="158.5104" y="-132.8" font-family="Times,serif" font-style="italic" font-size="14.00" fill="#000000">Read sensors</text>
</g>
<!-- sendSensor -->
<g id="node3" class="node">
<title>sendSensor</title>
<path fill="#ffffff" stroke="#ffffff" d="M226.6388,-112C226.6388,-112 90.3821,-112 90.3821,-112 84.3821,-112 78.3821,-106 78.3821,-100 78.3821,-100 78.3821,-88 78.3821,-88 78.3821,-82 84.3821,-76 90.3821,-76 90.3821,-76 226.6388,-76 226.6388,-76 232.6388,-76 238.6388,-82 238.6388,-88 238.6388,-88 238.6388,-100 238.6388,-100 238.6388,-106 232.6388,-112 226.6388,-112"/>
<text text-anchor="middle" x="158.5104" y="-89.8" font-family="Times,serif" font-style="italic" font-size="14.00" fill="#000000">Send transceiver message</text>
</g>
<!-- setupSensorsTransceivers -->
<g id="node5" class="node">
<title>setupSensorsTransceivers</title>
<path fill="#ffffff" stroke="#ffffff" d="M238.1007,-297C238.1007,-297 78.9201,-297 78.9201,-297 72.9201,-297 66.9201,-291 66.9201,-285 66.9201,-285 66.9201,-273 66.9201,-273 66.9201,-267 72.9201,-261 78.9201,-261 78.9201,-261 238.1007,-261 238.1007,-261 244.1007,-261 250.1007,-267 250.1007,-273 250.1007,-273 250.1007,-285 250.1007,-285 250.1007,-291 244.1007,-297 238.1007,-297"/>
<text text-anchor="middle" x="158.5104" y="-274.8" font-family="Times,serif" font-style="italic" font-size="14.00" fill="#000000">Setup sensors and transceiver</text>
</g>
</g>
</svg>
