<?xml version="1.0" encoding="UTF-8" standalone="no"?>
<!DOCTYPE svg PUBLIC "-//W3C//DTD SVG 1.1//EN"
 "http://www.w3.org/Graphics/SVG/1.1/DTD/svg11.dtd">
<!-- Generated by graphviz version 2.40.1 (20161225.0304)
 -->
<!-- Title: finite_state_machine Pages: 1 -->
<svg width="575pt" height="432pt"
 viewBox="0.00 0.00 574.75 432.00" xmlns="http://www.w3.org/2000/svg" xmlns:xlink="http://www.w3.org/1999/xlink">
<g id="graph0" class="graph" transform="scale(.564 .564) rotate(0) translate(4 762)">
<title>finite_state_machine</title>
<polygon fill="#ffffff" stroke="transparent" points="-4,4 -4,-762 1015.1203,-762 1015.1203,4 -4,4"/>
<g id="clust1" class="cluster">
<title>cluster_input1</title>
<polygon fill="#d3d3d3" stroke="#d3d3d3" points="26.8296,-8 26.8296,-156 406.4272,-156 406.4272,-8 26.8296,-8"/>
<text text-anchor="middle" x="216.6284" y="-140.8" font-family="Times,serif" font-size="14.00" fill="#000000">Sensor Input #1 FSM</text>
</g>
<g id="clust2" class="cluster">
<title>cluster_input2</title>
<polygon fill="#d3d3d3" stroke="#d3d3d3" points="26.8296,-164 26.8296,-312 406.4272,-312 406.4272,-164 26.8296,-164"/>
<text text-anchor="middle" x="216.6284" y="-296.8" font-family="Times,serif" font-size="14.00" fill="#000000">Sensor Input #2 FSM</text>
</g>
<g id="clust3" class="cluster">
<title>cluster_input3</title>
<polygon fill="#d3d3d3" stroke="#d3d3d3" points="26.8296,-320 26.8296,-468 406.4272,-468 406.4272,-320 26.8296,-320"/>
<text text-anchor="middle" x="216.6284" y="-452.8" font-family="Times,serif" font-size="14.00" fill="#000000">Sensor Input #3 FSM</text>
</g>
<g id="clust4" class="cluster">
<title>cluster_transceiver</title>
<polygon fill="#d3d3d3" stroke="#d3d3d3" points="8.2168,-476 8.2168,-750 423.0544,-750 423.0544,-476 8.2168,-476"/>
<text text-anchor="middle" x="215.6356" y="-734.8" font-family="Times,serif" font-size="14.00" fill="#000000">Transceiver FSM</text>
</g>
<g id="clust6" class="cluster">
<title>cluster_wisol</title>
<polygon fill="#d3d3d3" stroke="#d3d3d3" points="491.6956,-328 491.6956,-578 1002.9035,-578 1002.9035,-328 491.6956,-328"/>
<text text-anchor="middle" x="747.2996" y="-562.8" font-family="Times,serif" font-size="14.00" fill="#000000">Wisol FSM</text>
</g>
<!-- input1Idle -->
<g id="node1" class="node">
<title>input1Idle</title>
<ellipse fill="#ffffff" stroke="#ffffff" cx="76.9035" cy="-57" rx="36.7161" ry="36.7161"/>
<ellipse fill="none" stroke="#ffffff" cx="76.9035" cy="-57" rx="40.7273" ry="40.7273"/>
<text text-anchor="middle" x="76.9035" y="-59.8" font-family="Times,serif" font-size="14.00" fill="#000000">input1</text>
<text text-anchor="middle" x="76.9035" y="-45.8" font-family="Times,serif" font-size="14.00" fill="#000000">Idle</text>
</g>
<!-- input1Idle&#45;&gt;input1Idle -->
<g id="edge3" class="edge">
<title>input1Idle&#45;&gt;input1Idle</title>
<path fill="none" stroke="#000000" d="M64.1543,-95.8272C64.0874,-109.0142 68.3371,-119.6135 76.9035,-119.6135 83.1275,-119.6135 87.0728,-114.0182 88.7394,-105.9005"/>
<polygon fill="#000000" stroke="#000000" points="92.2353,-106.1025 89.6527,-95.8272 85.2639,-105.4703 92.2353,-106.1025"/>
<text text-anchor="middle" x="76.9035" y="-121.6135" font-family="Times,serif" font-size="10.00" fill="#000000">INPUT SENT</text>
</g>
<!-- input1Sending -->
<g id="node6" class="node">
<title>input1Sending</title>
<ellipse fill="#ffffff" stroke="#ffffff" cx="334.9035" cy="-73" rx="61.8909" ry="18"/>
<text text-anchor="middle" x="334.9035" y="-68.8" font-family="Times,serif" font-size="14.00" fill="#000000">input1Sending</text>
</g>
<!-- input1Idle&#45;&gt;input1Sending -->
<g id="edge1" class="edge">
<title>input1Idle&#45;&gt;input1Sending</title>
<path fill="none" stroke="#000000" d="M117.5427,-57.8209C149.7614,-58.6429 195.9141,-60.2008 236.2306,-63 246.2148,-63.6932 256.752,-64.5872 267.0763,-65.555"/>
<polygon fill="#000000" stroke="#000000" points="267.011,-69.0649 277.3013,-66.5427 267.6841,-62.0973 267.011,-69.0649"/>
<text text-anchor="middle" x="195.9035" y="-65" font-family="Times,serif" font-size="10.00" fill="#000000">INPUT CHANGED</text>
</g>
<!-- input2Idle -->
<g id="node2" class="node">
<title>input2Idle</title>
<ellipse fill="#ffffff" stroke="#ffffff" cx="76.9035" cy="-213" rx="36.7161" ry="36.7161"/>
<ellipse fill="none" stroke="#ffffff" cx="76.9035" cy="-213" rx="40.7273" ry="40.7273"/>
<text text-anchor="middle" x="76.9035" y="-215.8" font-family="Times,serif" font-size="14.00" fill="#000000">input2</text>
<text text-anchor="middle" x="76.9035" y="-201.8" font-family="Times,serif" font-size="14.00" fill="#000000">Idle</text>
</g>
<!-- input2Idle&#45;&gt;input2Idle -->
<g id="edge6" class="edge">
<title>input2Idle&#45;&gt;input2Idle</title>
<path fill="none" stroke="#000000" d="M64.1543,-251.8272C64.0874,-265.0142 68.3371,-275.6135 76.9035,-275.6135 83.1275,-275.6135 87.0728,-270.0182 88.7394,-261.9005"/>
<polygon fill="#000000" stroke="#000000" points="92.2353,-262.1025 89.6527,-251.8272 85.2639,-261.4703 92.2353,-262.1025"/>
<text text-anchor="middle" x="76.9035" y="-277.6135" font-family="Times,serif" font-size="10.00" fill="#000000">INPUT SENT</text>
</g>
<!-- input2Sending -->
<g id="node7" class="node">
<title>input2Sending</title>
<ellipse fill="#ffffff" stroke="#ffffff" cx="334.9035" cy="-229" rx="61.8909" ry="18"/>
<text text-anchor="middle" x="334.9035" y="-224.8" font-family="Times,serif" font-size="14.00" fill="#000000">input2Sending</text>
</g>
<!-- input2Idle&#45;&gt;input2Sending -->
<g id="edge4" class="edge">
<title>input2Idle&#45;&gt;input2Sending</title>
<path fill="none" stroke="#000000" d="M117.5427,-213.8209C149.7614,-214.6429 195.9141,-216.2008 236.2306,-219 246.2148,-219.6932 256.752,-220.5872 267.0763,-221.555"/>
<polygon fill="#000000" stroke="#000000" points="267.011,-225.0649 277.3013,-222.5427 267.6841,-218.0973 267.011,-225.0649"/>
<text text-anchor="middle" x="195.9035" y="-221" font-family="Times,serif" font-size="10.00" fill="#000000">INPUT CHANGED</text>
</g>
<!-- input3Idle -->
<g id="node3" class="node">
<title>input3Idle</title>
<ellipse fill="#ffffff" stroke="#ffffff" cx="76.9035" cy="-369" rx="36.7161" ry="36.7161"/>
<ellipse fill="none" stroke="#ffffff" cx="76.9035" cy="-369" rx="40.7273" ry="40.7273"/>
<text text-anchor="middle" x="76.9035" y="-371.8" font-family="Times,serif" font-size="14.00" fill="#000000">input3</text>
<text text-anchor="middle" x="76.9035" y="-357.8" font-family="Times,serif" font-size="14.00" fill="#000000">Idle</text>
</g>
<!-- input3Idle&#45;&gt;input3Idle -->
<g id="edge9" class="edge">
<title>input3Idle&#45;&gt;input3Idle</title>
<path fill="none" stroke="#000000" d="M64.1543,-407.8272C64.0874,-421.0142 68.3371,-431.6135 76.9035,-431.6135 83.1275,-431.6135 87.0728,-426.0182 88.7394,-417.9005"/>
<polygon fill="#000000" stroke="#000000" points="92.2353,-418.1025 89.6527,-407.8272 85.2639,-417.4703 92.2353,-418.1025"/>
<text text-anchor="middle" x="76.9035" y="-433.6135" font-family="Times,serif" font-size="10.00" fill="#000000">INPUT SENT</text>
</g>
<!-- input3Sending -->
<g id="node8" class="node">
<title>input3Sending</title>
<ellipse fill="#ffffff" stroke="#ffffff" cx="334.9035" cy="-385" rx="61.8909" ry="18"/>
<text text-anchor="middle" x="334.9035" y="-380.8" font-family="Times,serif" font-size="14.00" fill="#000000">input3Sending</text>
</g>
<!-- input3Idle&#45;&gt;input3Sending -->
<g id="edge7" class="edge">
<title>input3Idle&#45;&gt;input3Sending</title>
<path fill="none" stroke="#000000" d="M117.5427,-369.8209C149.7614,-370.6429 195.9141,-372.2008 236.2306,-375 246.2148,-375.6932 256.752,-376.5872 267.0763,-377.555"/>
<polygon fill="#000000" stroke="#000000" points="267.011,-381.0649 277.3013,-378.5427 267.6841,-374.0973 267.011,-381.0649"/>
<text text-anchor="middle" x="195.9035" y="-377" font-family="Times,serif" font-size="10.00" fill="#000000">INPUT CHANGED</text>
</g>
<!-- transceiverIdle -->
<g id="node4" class="node">
<title>transceiverIdle</title>
<ellipse fill="#ffffff" stroke="#ffffff" cx="76.9035" cy="-570" rx="54.9552" ry="54.9552"/>
<ellipse fill="none" stroke="#ffffff" cx="76.9035" cy="-570" rx="58.9713" ry="58.9713"/>
<text text-anchor="middle" x="76.9035" y="-572.8" font-family="Times,serif" font-size="14.00" fill="#000000">transceiver</text>
<text text-anchor="middle" x="76.9035" y="-558.8" font-family="Times,serif" font-size="14.00" fill="#000000">Idle</text>
</g>
<!-- transceiverSending -->
<g id="node9" class="node">
<title>transceiverSending</title>
<ellipse fill="#ffffff" stroke="#ffffff" cx="334.9035" cy="-502" rx="77.7676" ry="18"/>
<text text-anchor="middle" x="334.9035" y="-497.8" font-family="Times,serif" font-size="14.00" fill="#000000">transceiverSending</text>
</g>
<!-- transceiverIdle&#45;&gt;transceiverSending -->
<g id="edge10" class="edge">
<title>transceiverIdle&#45;&gt;transceiverSending</title>
<path fill="none" stroke="#000000" d="M125.7265,-536.5807C135.2844,-531.2832 145.4832,-526.4295 155.5764,-523 184.515,-513.1672 217.4238,-507.7781 247.0805,-504.8742"/>
<polygon fill="#000000" stroke="#000000" points="247.7753,-508.3261 257.423,-503.9475 247.1505,-501.354 247.7753,-508.3261"/>
<text text-anchor="start" x="168.9601" y="-535" font-family="Times,serif" font-size="10.00" fill="#000000">INPUT </text>
<text text-anchor="middle" x="195.9035" y="-525" font-family="Times,serif" font-size="10.00" fill="#000000"> &#160;CHANGED</text>
</g>
<!-- transceiverIdle&#45;&gt;transceiverSending -->
<g id="edge15" class="edge">
<title>transceiverIdle&#45;&gt;transceiverSending</title>
<path fill="none" stroke="#000000" d="M135.5454,-563.8603C165.974,-559.817 203.5239,-553.479 236.2306,-544 255.2416,-538.4903 275.4798,-530.3134 292.6473,-522.6349"/>
<polygon fill="#000000" stroke="#000000" points="294.1964,-525.7753 301.8417,-518.4404 291.291,-519.4067 294.1964,-525.7753"/>
<text text-anchor="start" x="177.8542" y="-572" font-family="Times,serif" font-size="10.00" fill="#000000">After 30 </text>
<text text-anchor="middle" x="195.9035" y="-562" font-family="Times,serif" font-size="10.00" fill="#000000"> seconds</text>
</g>
<!-- listen -->
<g id="node5" class="node">
<title>listen</title>
<ellipse fill="#ffffff" stroke="#ffffff" cx="540.9035" cy="-502" rx="36.1095" ry="36.1095"/>
<ellipse fill="none" stroke="#ffffff" cx="540.9035" cy="-502" rx="40.1153" ry="40.1153"/>
<text text-anchor="middle" x="540.9035" y="-504.8" font-family="Times,serif" font-size="14.00" fill="#000000">start / </text>
<text text-anchor="middle" x="540.9035" y="-490.8" font-family="Times,serif" font-size="14.00" fill="#000000"> listen</text>
</g>
<!-- send -->
<g id="node12" class="node">
<title>send</title>
<ellipse fill="#ffffff" stroke="#ffffff" cx="806.9035" cy="-482" rx="27" ry="18"/>
<text text-anchor="middle" x="806.9035" y="-477.8" font-family="Times,serif" font-size="14.00" fill="#000000">send</text>
</g>
<!-- listen&#45;&gt;send -->
<g id="edge16" class="edge">
<title>listen&#45;&gt;send</title>
<path fill="none" stroke="#000000" d="M581.0144,-498.9841C632.2326,-495.1332 720.1596,-488.5221 769.8597,-484.7852"/>
<polygon fill="#000000" stroke="#000000" points="770.1485,-488.2735 779.858,-484.0335 769.6237,-481.2932 770.1485,-488.2735"/>
<text text-anchor="start" x="675.8591" y="-503" font-family="Times,serif" font-size="10.00" fill="#000000">Start listening </text>
<text text-anchor="start" x="675.8591" y="-493" font-family="Times,serif" font-size="10.00" fill="#000000"> for incoming data </text>
</g>
<!-- input1Sending&#45;&gt;input1Idle -->
<g id="edge2" class="edge">
<title>input1Sending&#45;&gt;input1Idle</title>
<path fill="none" stroke="#000000" d="M274.1388,-76.7048C239.3337,-77.986 194.8925,-78.1993 155.5764,-74 145.9858,-72.9756 135.8476,-71.2678 126.1544,-69.3196"/>
<polygon fill="#000000" stroke="#000000" points="126.7642,-65.8711 116.2557,-67.2208 125.3122,-72.7189 126.7642,-65.8711"/>
<text text-anchor="middle" x="195.9035" y="-80" font-family="Times,serif" font-size="10.00" fill="#000000">INPUT SENT</text>
</g>
<!-- input2Sending&#45;&gt;input2Idle -->
<g id="edge5" class="edge">
<title>input2Sending&#45;&gt;input2Idle</title>
<path fill="none" stroke="#000000" d="M274.1388,-232.7048C239.3337,-233.986 194.8925,-234.1993 155.5764,-230 145.9858,-228.9756 135.8476,-227.2678 126.1544,-225.3196"/>
<polygon fill="#000000" stroke="#000000" points="126.7642,-221.8711 116.2557,-223.2208 125.3122,-228.7189 126.7642,-221.8711"/>
<text text-anchor="middle" x="195.9035" y="-235" font-family="Times,serif" font-size="10.00" fill="#000000">INPUT SENT</text>
</g>
<!-- input3Sending&#45;&gt;input3Idle -->
<g id="edge8" class="edge">
<title>input3Sending&#45;&gt;input3Idle</title>
<path fill="none" stroke="#000000" d="M274.1388,-388.7048C239.3337,-389.986 194.8925,-390.1993 155.5764,-386 145.9858,-384.9756 135.8476,-383.2678 126.1544,-381.3196"/>
<polygon fill="#000000" stroke="#000000" points="126.7642,-377.8711 116.2557,-379.2208 125.3122,-384.7189 126.7642,-377.8711"/>
<text text-anchor="middle" x="195.9035" y="-391" font-family="Times,serif" font-size="10.00" fill="#000000">INPUT SENT</text>
</g>
<!-- transceiverSending&#45;&gt;listen -->
<g id="edge22" class="edge">
<title>transceiverSending&#45;&gt;listen</title>
<path fill="none" stroke="#000000" stroke-dasharray="5,2" d="M413.077,-502C438.9373,-502 467.0178,-502 490.2556,-502"/>
<polygon fill="#000000" stroke="#000000" points="490.5664,-505.5001 500.5663,-502 490.5663,-498.5001 490.5664,-505.5001"/>
<text text-anchor="start" x="431.4885" y="-524" font-family="Times,serif" font-size="10.00" fill="#000000">Start the </text>
<text text-anchor="start" x="431.4885" y="-514" font-family="Times,serif" font-size="10.00" fill="#000000"> Wisol FSM </text>
<text text-anchor="middle" x="456.9035" y="-504" font-family="Times,serif" font-size="10.00" fill="#000000"> to send data</text>
</g>
<!-- transceiverSending&#45;&gt;transceiverSending -->
<g id="edge11" class="edge">
<title>transceiverSending&#45;&gt;transceiverSending</title>
<path fill="none" stroke="#000000" d="M319.7087,-519.6845C315.7448,-531.056 320.8098,-542 334.9035,-542 344.593,-542 350.0149,-536.8272 351.1693,-529.8991"/>
<polygon fill="#000000" stroke="#000000" points="354.6221,-529.265 350.0983,-519.6845 347.6602,-529.995 354.6221,-529.265"/>
<text text-anchor="end" x="379.1198" y="-554" font-family="Times,serif" font-size="10.00" fill="#000000">INPUT CHANGED / </text>
<text text-anchor="end" x="379.1198" y="-544" font-family="Times,serif" font-size="10.00" fill="#000000"> scheduleResend </text>
</g>
<!-- transceiverSent -->
<g id="node10" class="node">
<title>transceiverSent</title>
<ellipse fill="#ffffff" stroke="#ffffff" cx="334.9035" cy="-664" rx="64.7372" ry="18"/>
<text text-anchor="middle" x="334.9035" y="-659.8" font-family="Times,serif" font-size="14.00" fill="#000000">transceiverSent</text>
</g>
<!-- transceiverSending&#45;&gt;transceiverSent -->
<g id="edge12" class="edge">
<title>transceiverSending&#45;&gt;transceiverSent</title>
<path fill="none" stroke="#000000" d="M334.9035,-520.2686C334.9035,-548.222 334.9035,-601.8582 334.9035,-635.118"/>
<polygon fill="#000000" stroke="#000000" points="331.4036,-635.5496 334.9035,-645.5497 338.4036,-635.5497 331.4036,-635.5496"/>
<text text-anchor="end" x="332.7873" y="-590" font-family="Times,serif" font-size="10.00" fill="#000000">INPUT </text>
<text text-anchor="end" x="332.7873" y="-580" font-family="Times,serif" font-size="10.00" fill="#000000"> SENT </text>
<text text-anchor="middle" x="316.9035" y="-570" font-family="Times,serif" font-size="10.00" fill="#000000"> </text>
</g>
<!-- transceiverSent&#45;&gt;transceiverIdle -->
<g id="edge14" class="edge">
<title>transceiverSent&#45;&gt;transceiverIdle</title>
<path fill="none" stroke="#000000" d="M295.6005,-649.6803C254.7478,-634.796 190.1297,-611.2529 141.7076,-593.6108"/>
<polygon fill="#000000" stroke="#000000" points="142.845,-590.3002 132.251,-590.1654 140.4486,-596.8772 142.845,-590.3002"/>
<text text-anchor="start" x="176.6042" y="-639" font-family="Times,serif" font-size="10.00" fill="#000000">After 2.1 </text>
<text text-anchor="start" x="176.6042" y="-629" font-family="Times,serif" font-size="10.00" fill="#000000"> seconds</text>
</g>
<!-- transceiverSent&#45;&gt;transceiverSent -->
<g id="edge13" class="edge">
<title>transceiverSent&#45;&gt;transceiverSent</title>
<path fill="none" stroke="#000000" d="M319.7087,-681.6845C315.7448,-693.056 320.8098,-704 334.9035,-704 344.593,-704 350.0149,-698.8272 351.1693,-691.8991"/>
<polygon fill="#000000" stroke="#000000" points="354.6221,-691.265 350.0983,-681.6845 347.6602,-691.995 354.6221,-691.265"/>
<text text-anchor="middle" x="334.9035" y="-716" font-family="Times,serif" font-size="10.00" fill="#000000">INPUT CHANGED / </text>
<text text-anchor="middle" x="334.9035" y="-706" font-family="Times,serif" font-size="10.00" fill="#000000"> scheduleResend </text>
</g>
<!-- end -->
<g id="node11" class="node">
<title>end</title>
<ellipse fill="#ffffff" stroke="#ffffff" cx="540.9035" cy="-422" rx="27" ry="18"/>
<text text-anchor="middle" x="540.9035" y="-417.8" font-family="Times,serif" font-size="14.00" fill="#000000">end</text>
</g>
<!-- send&#45;&gt;send -->
<g id="edge17" class="edge">
<title>send&#45;&gt;send</title>
<path fill="none" stroke="#000000" d="M799.3061,-499.6845C797.3242,-511.056 799.8566,-522 806.9035,-522 811.7482,-522 814.4592,-516.8272 815.0364,-509.8991"/>
<polygon fill="#000000" stroke="#000000" points="818.5197,-509.4875 814.5009,-499.6845 811.5293,-509.854 818.5197,-509.4875"/>
<text text-anchor="start" x="785.2458" y="-544" font-family="Times,serif" font-size="10.00" fill="#000000">More data </text>
<text text-anchor="start" x="785.2458" y="-534" font-family="Times,serif" font-size="10.00" fill="#000000"> to send </text>
<text text-anchor="start" x="785.2458" y="-524" font-family="Times,serif" font-size="10.00" fill="#000000"> (Uplink) </text>
</g>
<!-- receive -->
<g id="node13" class="node">
<title>receive</title>
<ellipse fill="#ffffff" stroke="#ffffff" cx="957.9035" cy="-456" rx="35.7627" ry="18"/>
<text text-anchor="middle" x="957.9035" y="-451.8" font-family="Times,serif" font-size="14.00" fill="#000000">receive</text>
</g>
<!-- send&#45;&gt;receive -->
<g id="edge18" class="edge">
<title>send&#45;&gt;receive</title>
<path fill="none" stroke="#000000" d="M833.2057,-477.4711C855.435,-473.6436 887.7426,-468.0807 913.9026,-463.5763"/>
<polygon fill="#000000" stroke="#000000" points="914.6963,-466.9912 923.9574,-461.845 913.5084,-460.0928 914.6963,-466.9912"/>
<text text-anchor="start" x="862.0783" y="-484" font-family="Times,serif" font-size="10.00" fill="#000000">Send </text>
<text text-anchor="start" x="862.0783" y="-474" font-family="Times,serif" font-size="10.00" fill="#000000"> complete </text>
</g>
<!-- receive&#45;&gt;end -->
<g id="edge21" class="edge">
<title>receive&#45;&gt;end</title>
<path fill="none" stroke="#000000" d="M932.1676,-443.4377C917.9821,-437.6309 899.8559,-432 882.9035,-432 713.9035,-432 713.9035,-432 713.9035,-432 667.0087,-432 613.0826,-428.2926 578.0737,-425.3925"/>
<polygon fill="#000000" stroke="#000000" points="578.1053,-421.8827 567.8449,-424.5234 577.5126,-428.8576 578.1053,-421.8827"/>
<text text-anchor="middle" x="806.9035" y="-434" font-family="Times,serif" font-size="10.00" fill="#000000">Receive complete</text>
</g>
<!-- receive&#45;&gt;receive -->
<g id="edge19" class="edge">
<title>receive&#45;&gt;receive</title>
<path fill="none" stroke="#000000" d="M950.3061,-473.6845C948.3242,-485.056 950.8566,-496 957.9035,-496 962.7482,-496 965.4592,-490.8272 966.0364,-483.8991"/>
<polygon fill="#000000" stroke="#000000" points="969.5197,-483.4875 965.5009,-473.6845 962.5293,-483.854 969.5197,-483.4875"/>
<text text-anchor="start" x="932.0734" y="-518" font-family="Times,serif" font-size="10.00" fill="#000000">More data </text>
<text text-anchor="start" x="932.0734" y="-508" font-family="Times,serif" font-size="10.00" fill="#000000"> to receive </text>
<text text-anchor="start" x="932.0734" y="-498" font-family="Times,serif" font-size="10.00" fill="#000000"> (Downlink) </text>
</g>
<!-- timeout -->
<g id="node14" class="node">
<title>timeout</title>
<ellipse fill="#ffffff" stroke="#ffffff" cx="628.9035" cy="-381" rx="37.2507" ry="18"/>
<text text-anchor="middle" x="628.9035" y="-376.8" font-family="Times,serif" font-size="14.00" fill="#000000">timeout</text>
</g>
<!-- receive&#45;&gt;timeout -->
<g id="edge20" class="edge">
<title>receive&#45;&gt;timeout</title>
<path fill="none" stroke="#000000" d="M941.763,-439.657C920.9712,-419.8883 882.7054,-387.6836 842.5798,-375 786.0701,-357.1375 716.9122,-363.8958 672.877,-371.5082"/>
<polygon fill="#000000" stroke="#000000" points="672.0021,-368.1099 662.7901,-373.3433 673.2551,-374.9968 672.0021,-368.1099"/>
<text text-anchor="start" x="788.5734" y="-397" font-family="Times,serif" font-size="10.00" fill="#000000">After </text>
<text text-anchor="start" x="788.5734" y="-387" font-family="Times,serif" font-size="10.00" fill="#000000"> 60 </text>
<text text-anchor="start" x="788.5734" y="-377" font-family="Times,serif" font-size="10.00" fill="#000000"> seconds </text>
</g>
</g>
</svg>
